<svg width="81" height="23" viewBox="0 0 81 23" fill="none" xmlns="http://www.w3.org/2000/svg">
<g clip-path="url(#clip0_1_3)">
<path d="M19.018 0.299988H0V5.30499H19.018V0.299988Z" fill="#2D2D2D"/>
<path d="M19.018 8.758H0V13.763H19.018V8.758Z" fill="#2D2D2D"/>
<path d="M19.018 17.016H0V22.021H19.018V17.016Z" fill="#2D2D2D"/>
<path fill-rule="evenodd" clip-rule="evenodd" d="M25.067 21.716H20.519V0.351994H30.512C35.156 0.351994 37.687 3.49099 37.687 7.23799C37.687 10.953 35.125 14.124 30.512 14.124H25.067V21.716ZM29.903 10.121C30.3022 10.1551 30.7042 10.1059 31.0834 9.97653C31.4626 9.84716 31.8108 9.64043 32.1059 9.36944C32.4011 9.09845 32.6367 8.76911 32.7979 8.40229C32.959 8.03547 33.0423 7.63916 33.0423 7.23849C33.0423 6.83782 32.959 6.44152 32.7979 6.0747C32.6367 5.70788 32.4011 5.37854 32.1059 5.10755C31.8108 4.83656 31.4626 4.62982 31.0834 4.50045C30.7042 4.37108 30.3022 4.32189 29.903 4.35599H25.067V10.121H29.903ZM43.552 21.716H39.004V0.351994H43.552V21.716ZM56.124 22.1C49.718 22.1 44.753 17.616 44.753 11.05C44.753 4.48399 49.719 -6.44708e-06 56.124 -6.44708e-06C57.9527 -0.05266 59.7596 0.408688 61.3392 1.33161C62.9189 2.25454 64.2079 3.60204 65.06 5.22099L61.153 7.14299C60.6712 6.22112 59.9498 5.44608 59.0649 4.89934C58.18 4.35261 57.1641 4.05438 56.124 4.03599C55.2156 4.02905 54.3153 4.20823 53.4788 4.56249C52.6422 4.91675 51.8871 5.43859 51.2599 6.09583C50.6328 6.75308 50.1468 7.53181 49.8321 8.38402C49.5174 9.23623 49.3806 10.1439 49.43 11.051C49.3806 11.9581 49.5174 12.8658 49.8321 13.718C50.1468 14.5702 50.6328 15.3489 51.2599 16.0062C51.8871 16.6634 52.6422 17.1852 53.4788 17.5395C54.3153 17.8938 55.2156 18.0729 56.124 18.066C57.1655 18.0542 58.1841 17.7587 59.0702 17.2112C59.9563 16.6638 60.6764 15.8851 61.153 14.959L65.061 16.849C64.2076 18.4692 62.919 19.8191 61.3401 20.7468C59.7612 21.6745 57.9548 22.1431 56.124 22.1Z" fill="#2D2D2D"/>
<path d="M74.483 21.413C78.0822 21.413 81 18.4952 81 14.896C81 11.2968 78.0822 8.379 74.483 8.379C70.8838 8.379 67.966 11.2968 67.966 14.896C67.966 18.4952 70.8838 21.413 74.483 21.413Z" fill="#2D2D2D"/>
</g>
<defs>
<clipPath id="clip0_1_3">
<rect width="81" height="22.1" fill="white"/>
</clipPath>
</defs>
</svg>
